<svg width="707" height="473" viewBox="0 0 707 473" fill="none" xmlns="http://www.w3.org/2000/svg">
<g clip-path="url(#clip0_2311_2)">
<mask id="mask0_2311_2" style="mask-type:luminance" maskUnits="userSpaceOnUse" x="-320" y="-554" width="1027" height="1027">
<path d="M48.9439 472.944L706.368 -184.48L337.48 -553.368L-319.944 104.056L48.9439 472.944Z" fill="white"/>
</mask>
<g mask="url(#mask0_2311_2)">
<path d="M68.282 304.798L68.188 304.448L-175.6 369.767L-175.506 370.117L68.282 304.798Z" fill="#D1D1D1"/>
<path d="M65.3109 456.531L130.631 212.743L130.281 212.649L64.9609 456.437L65.3109 456.531Z" fill="#D1D1D1"/>
<path d="M250.897 115.232L302.309 -76.4774L301.997 -76.561L250.585 115.149L250.897 115.232Z" fill="#D1D1D1"/>
<path d="M260.789 140.533L260.708 140.231L81.816 188.161L81.8931 188.467L260.789 140.533Z" fill="#D1D1D1"/>
<path d="M276.298 -51.6935L276.398 -51.7223L316.96 -62.5899L346.727 -32.8236L346.698 -32.7236L335.83 7.83849L335.731 7.86678L295.169 18.7344L265.403 -11.0319L265.431 -11.1314L276.298 -51.6935ZM316.85 -62.1872L276.591 -51.4013L265.805 -11.1419L295.275 18.3285L335.535 7.54311L346.32 -32.7168L316.85 -62.1872Z" fill="#D1D1D1"/>
<path d="M269.589 44.1926L269.688 44.1643L310.251 33.2967L340.017 63.063L339.989 63.1625L329.121 103.725L288.459 114.621L258.693 84.8547L258.721 84.7552L269.589 44.1926ZM310.14 33.6994L269.881 44.4848L259.095 84.7442L288.566 114.215L328.825 103.429L339.611 63.1698L310.14 33.6994Z" fill="#D1D1D1"/>
<path d="M280.425 3.72771L280.524 3.69943L321.086 -7.16815L350.853 22.5981L350.824 22.6976L339.957 63.2597L299.295 74.156L269.528 44.3898L269.557 44.2898L280.425 3.72771ZM320.976 -6.75864L280.717 4.02677L269.931 44.2867L299.402 73.757L339.661 62.9712L350.447 22.7117L320.976 -6.75864Z" fill="#D1D1D1"/>
<path d="M372.188 -58.4067L372.288 -58.4354L412.85 -69.303L442.616 -39.5368L442.588 -39.4368L431.72 1.12557L391.058 12.0212L361.292 -17.745L361.32 -17.8445L372.188 -58.4067ZM412.74 -68.9003L372.48 -58.1145L361.695 -17.8555L391.165 11.6149L431.425 0.829826L442.21 -39.4299L412.74 -68.9003Z" fill="#D1D1D1"/>
<path d="M-36.5411 -5.42461L-36.4371 -5.45746L4.1239 -16.3223L33.8899 13.4439L33.8619 13.5435L22.9919 54.1079L22.8919 54.1362L-17.6682 65.0015L-47.4341 35.2353L-47.4052 35.1357L-36.5411 -5.42461ZM4.01691 -15.916L-36.2411 -5.12511L-47.0281 35.1293L-17.5581 64.5997L22.6999 53.8157L33.4869 13.5544L4.01691 -15.916Z" fill="#D1D1D1"/>
<path d="M14.7629 -56.7283L14.8619 -56.7567L55.4249 -67.6238L85.1909 -37.8575L85.163 -37.758L74.2949 2.8042L74.1949 2.83296L33.6329 13.7005L3.86694 -16.0657L3.89594 -16.1657L14.7629 -56.7283ZM55.3179 -67.2174L15.062 -56.4288L4.27295 -16.1726L33.744 13.2978L74.0029 2.51202L84.7889 -37.747L55.3179 -67.2174Z" fill="#D1D1D1"/>
<path d="M44.1369 -27.3543L44.4079 -27.4251L85.1379 -38.3392L115.15 -8.32731L115.079 -8.05613L104.165 32.6735L103.894 32.7448L63.1639 43.6585L33.1519 13.6466L33.2239 13.3754L44.1369 -27.3543ZM84.8448 -37.2631L44.9249 -26.5667L34.2279 13.3544L63.4529 42.5792L103.374 31.8823L114.07 -8.03831L84.8448 -37.2631Z" fill="#484AB7"/>
<path d="M195.388 -30.0082L195.487 -30.0365L236.05 -40.904L265.816 -11.1378L265.788 -11.0383L254.92 29.5239L254.82 29.5526L214.258 40.4202L184.492 10.6539L184.52 10.5544L195.388 -30.0082ZM235.939 -40.5014L195.68 -29.7164L184.894 10.5435L214.365 40.0139L254.621 29.2248L265.41 -11.031L235.939 -40.5014Z" fill="#D1D1D1"/>
<path d="M154.668 -19.4259L154.939 -19.4971L195.669 -30.4113L225.681 -0.399025L225.61 -0.128286L214.696 40.6014L214.425 40.6731L173.695 51.5868L143.683 21.5745L143.755 21.3038L154.668 -19.4259ZM195.38 -29.3312L155.459 -18.6352L144.763 21.2865L173.987 50.5108L213.908 39.8139L224.605 -0.106844L195.38 -29.3312Z" fill="#D1D1D1"/>
<path d="M148.205 76.7136L148.305 76.6853L188.867 65.8178L218.633 95.584L218.605 95.6835L207.737 136.246L167.075 147.142L137.309 117.376L137.338 117.276L148.205 76.7136ZM188.756 66.2204L148.5 77.009L137.711 117.265L167.182 146.736L207.441 135.95L218.227 95.6908L188.756 66.2204Z" fill="#D1D1D1"/>
<path d="M159.04 36.2469L159.14 36.2181L199.702 25.351L229.468 55.1172L229.44 55.2172L218.572 95.7794L218.473 95.8077L177.91 106.675L148.144 76.909L148.172 76.8095L159.04 36.2469ZM199.595 25.7573L159.339 36.5464L148.551 76.8022L178.021 106.273L218.28 95.4872L229.066 55.2277L199.595 25.7573Z" fill="#D1D1D1"/>
<path d="M199.507 25.4122L199.607 25.3835L240.169 14.5159L269.935 44.2821L269.906 44.3821L259.039 84.9442L218.377 95.8402L188.611 66.0739L188.639 65.9744L199.507 25.4122ZM240.058 14.9185L199.802 25.7076L189.013 65.9634L218.484 95.4338L258.743 84.6484L269.529 44.3889L240.058 14.9185Z" fill="#D1D1D1"/>
<path d="M70.1899 -52.6021L70.2899 -52.6309L110.853 -63.498L140.619 -33.7322L140.59 -33.6322L129.723 6.93037L129.623 6.9587L89.0609 17.8258L59.2949 -11.94L59.3229 -12.04L70.1899 -52.6021ZM110.743 -63.0953L70.4828 -52.3099L59.6979 -12.0504L89.1679 17.4199L129.427 6.63454L140.213 -33.6249L110.743 -63.0953Z" fill="#D1D1D1"/>
<path d="M63.165 42.975L63.265 42.9463L103.827 32.0787L133.593 61.8449L133.564 61.9449L122.697 102.507L122.597 102.535L82.033 113.405L52.267 83.6385L52.295 83.539L63.165 42.975ZM103.72 32.485L63.464 43.2741L52.677 83.528L82.147 112.998L122.405 102.215L133.191 61.9554L103.72 32.485Z" fill="#D1D1D1"/>
<path d="M74.0029 2.51103L74.1019 2.48272L114.665 -8.3844L144.431 21.3814L144.403 21.4813L133.535 62.0435L133.435 62.0723L92.8729 72.9394L63.1069 43.1736L63.1359 43.0736L74.0029 2.51103ZM114.554 -7.98172L74.2949 2.80322L63.5089 43.0631L92.9799 72.5335L133.239 61.7477L144.025 21.4886L114.554 -7.98172Z" fill="#D1D1D1"/>
<path d="M-47.3809 35.0321L-47.2819 35.0038L-6.71692 24.1339L23.0491 53.9001L23.0201 53.9996L12.1511 94.5645L12.0511 94.5924L-28.5129 105.462L-58.28 75.696L-58.2469 75.5919L-47.3809 35.0321ZM-6.82794 24.5438L-47.0819 35.3316L-57.8699 75.5856L-28.3989 105.056L11.855 94.2687L22.6421 54.0142L-6.82794 24.5438Z" fill="#D1D1D1"/>
<path d="M-69.063 115.955L-68.9631 115.926L-28.399 105.056L1.36792 134.823L1.33893 134.922L-9.53107 175.487L-9.63007 175.515L-50.1901 186.38L-79.9561 156.614L-79.928 156.514L-69.063 115.955ZM-28.509 105.466L-68.7671 116.25L-79.5511 156.508L-50.0801 185.978L-9.82306 175.194L0.960938 134.937L-28.509 105.466Z" fill="#D1D1D1"/>
<path d="M-39.4429 145.574L-39.343 145.546L1.22107 134.676L30.9871 164.442L30.959 164.542L20.0891 205.106L19.9901 205.135L-20.5699 216L-50.3369 186.234L-50.3079 186.134L-39.4429 145.574ZM1.10706 135.082L-39.1469 145.87L-49.9349 186.124L-20.4639 215.594L19.7941 204.811L30.5771 164.553L1.10706 135.082Z" fill="#D1D1D1"/>
<path d="M71.0891 153.502L71.188 153.473L111.753 142.604L141.519 172.37L141.49 172.469L130.621 213.034L130.521 213.062L89.957 223.932L60.191 194.166L60.2241 194.062L71.0891 153.502ZM111.639 143.01L71.381 153.794L60.597 194.052L90.0681 223.522L130.325 212.738L141.109 172.481L111.639 143.01Z" fill="#D1D1D1"/>
<path d="M11.852 94.265L11.951 94.2367L52.516 83.3673L82.282 113.133L82.254 113.233L71.384 153.798L71.285 153.826L30.72 164.695L0.953979 134.929L0.987 134.825L11.852 94.265ZM52.402 83.7736L12.148 94.5609L1.36102 134.815L30.831 164.286L71.089 153.502L81.873 113.244L52.402 83.7736Z" fill="#D1D1D1"/>
<path d="M-20.66 215.655L-20.56 215.626L20.004 204.757L49.77 234.523L49.742 234.622L38.873 275.187L38.773 275.216L-1.78699 286.08L-31.553 256.314L-31.525 256.215L-20.66 215.655ZM19.895 205.158L-20.368 215.947L-31.152 256.205L-1.68103 285.675L38.577 274.891L49.365 234.629L19.895 205.158Z" fill="#D1D1D1"/>
<path d="M-10.0711 174.946L-9.7981 174.872L30.9319 163.957L60.9438 193.97L60.8699 194.243L49.9559 234.973L49.6879 235.042L8.95685 245.956L-21.0551 215.944L-20.9861 215.676L-10.0711 174.946ZM30.6389 165.034L-9.28412 175.733L-19.9781 215.651L9.24585 244.876L49.1649 234.182L59.8629 194.259L30.6389 165.034Z" fill="#484AB7"/>
<path d="M60.2491 193.959L60.3481 193.931L100.908 183.066L130.674 212.832L130.646 212.931L119.781 253.491L79.1171 264.389L49.3511 234.623L49.3791 234.524L60.2491 193.959ZM100.802 183.471L60.545 194.255L49.756 234.517L79.2271 263.988L119.489 253.199L130.273 212.942L100.802 183.471Z" fill="#D1D1D1"/>
<path d="M79.027 264.044L119.691 253.146L149.457 282.912L149.429 283.012L138.559 323.576L97.9001 334.47L68.1331 304.703L68.162 304.604L79.027 264.044ZM119.58 253.556L79.3231 264.34L68.5391 304.597L98.009 334.068L138.267 323.284L149.051 283.026L119.58 253.556Z" fill="#D1D1D1"/>
<path d="M89.8651 223.575L89.9641 223.547L130.524 212.682L160.29 242.448L160.262 242.547L149.397 283.107L108.733 294.006L78.9661 264.239L78.9951 264.14L89.8651 223.575ZM130.418 213.087L90.1641 223.874L79.3721 264.133L108.842 293.604L149.105 282.815L159.888 242.558L130.418 213.087Z" fill="#D1D1D1"/>
<path d="M22.704 53.8193L22.808 53.7865L63.368 42.9211L93.134 72.6874L93.105 72.7869L82.2361 113.352L82.136 113.38L41.576 124.245L11.8101 94.4788L11.8381 94.3792L22.704 53.8193ZM63.2571 43.3238L22.996 54.1115L12.212 94.3692L41.6821 123.84L81.9401 113.056L92.7271 72.7942L63.2571 43.3238Z" fill="#D1D1D1"/>
<path d="M67.1169 98.2333L67.2209 98.2005L107.782 87.3356L137.548 117.101L137.519 117.201L126.65 157.766L126.55 157.794L85.9899 168.659L56.2239 138.893L56.2529 138.794L67.1169 98.2333ZM107.674 87.7415L67.4129 98.5292L56.6289 138.787L86.0999 168.257L126.358 157.474L137.145 117.212L107.674 87.7415Z" fill="#D1D1D1"/>
<path d="M248.82 113.286C247.76 114.346 247.759 116.066 248.82 117.126C249.881 118.187 251.601 118.187 252.661 117.126C253.722 116.066 253.722 114.346 252.661 113.285C251.601 112.225 249.881 112.225 248.82 113.286Z" fill="#C5C8CD"/>
<path d="M36.803 273.117C35.743 274.176 35.7451 275.894 36.8061 276.955C37.8661 278.015 39.585 278.017 40.644 276.958C41.708 275.894 41.706 274.176 40.645 273.115C39.5851 272.055 37.866 272.053 36.803 273.117Z" fill="#C5C8CD"/>
<path d="M31.6921 11.5017C30.6311 12.5627 30.6311 14.282 31.6921 15.3431C32.7531 16.4036 34.4721 16.4037 35.5331 15.3427C36.5941 14.2821 36.5941 12.5627 35.5331 11.5022C34.4721 10.4412 32.7531 10.4412 31.6921 11.5017Z" fill="#C5C8CD"/>
<path d="M80.1699 111.276C79.1059 112.34 79.108 114.059 80.168 115.119C81.229 116.18 82.9469 116.182 84.0109 115.118C85.0699 114.059 85.0689 112.34 84.0079 111.28C82.9469 110.219 81.2289 110.217 80.1699 111.276Z" fill="#C5C8CD"/>
</g>
</g>
<defs>
<clipPath id="clip0_2311_2">
<rect width="707" height="473" fill="white" transform="matrix(-1 0 0 1 707 0)"/>
</clipPath>
</defs>
</svg>
