<svg width="707" height="473" viewBox="0 0 707 473" fill="none" xmlns="http://www.w3.org/2000/svg">
<g clip-path="url(#clip0_1_1697)">
<path d="M638.718 304.798L638.812 304.448L882.6 369.767L882.506 370.117L638.718 304.798Z" fill="#D1D1D1"/>
<path d="M641.689 456.531L576.369 212.743L576.719 212.649L642.039 456.437L641.689 456.531Z" fill="#D1D1D1"/>
<path d="M456.103 115.232L404.691 -76.4775L405.003 -76.5611L456.415 115.149L456.103 115.232Z" fill="#D1D1D1"/>
<path d="M446.211 140.533L446.292 140.231L625.184 188.161L625.107 188.467L446.211 140.533Z" fill="#D1D1D1"/>
<path d="M430.702 -51.6935L430.602 -51.7223L390.04 -62.5899L360.273 -32.8236L360.302 -32.7236L371.17 7.83849L371.269 7.86678L411.831 18.7344L441.597 -11.0319L441.569 -11.1314L430.702 -51.6935ZM390.15 -62.1872L430.409 -51.4013L441.195 -11.1419L411.725 18.3285L371.465 7.54311L360.68 -32.7168L390.15 -62.1872Z" fill="#D1D1D1"/>
<path d="M405.144 -77.4367L404.873 -77.5084L364.144 -88.4221L334.131 -58.4098L334.203 -58.1395L345.117 -17.4094L386.117 -6.42445L416.129 -36.4368L416.058 -36.707L405.144 -77.4367ZM364.432 -87.3424L404.353 -76.646L415.049 -36.7248L385.825 -7.50052L345.904 -18.1969L335.207 -58.1181L364.432 -87.3424Z" fill="#D1D1D1"/>
<path d="M437.411 44.1926L437.312 44.1643L396.749 33.2967L366.983 63.063L367.011 63.1625L377.879 103.725L418.541 114.621L448.307 84.8547L448.279 84.7552L437.411 44.1926ZM396.86 33.6994L437.119 44.4848L447.905 84.7442L418.434 114.215L378.175 103.429L367.389 63.1698L396.86 33.6994Z" fill="#D1D1D1"/>
<path d="M426.575 3.72768L426.476 3.6994L385.914 -7.16818L356.147 22.5981L356.176 22.6976L367.043 63.2597L407.705 74.156L437.472 44.3898L437.443 44.2898L426.575 3.72768ZM386.024 -6.75867L426.283 4.02674L437.069 44.2867L407.598 73.757L367.339 62.9712L356.553 22.7117L386.024 -6.75867Z" fill="#D1D1D1"/>
<path d="M334.812 -58.4067L334.712 -58.4354L294.15 -69.303L264.384 -39.5368L264.412 -39.4368L275.28 1.12555L315.942 12.0212L345.708 -17.745L345.68 -17.8445L334.812 -58.4067ZM294.26 -68.9003L334.52 -58.1145L345.305 -17.8555L315.835 11.6149L275.575 0.829806L264.79 -39.4299L294.26 -68.9003Z" fill="#D1D1D1"/>
<path d="M743.541 -5.42464L743.437 -5.45749L702.876 -16.3223L673.11 13.4439L673.138 13.5435L684.008 54.1079L684.108 54.1362L724.668 65.0015L754.434 35.2353L754.405 35.1357L743.541 -5.42464ZM702.983 -15.916L743.241 -5.12514L754.028 35.1293L724.558 64.5997L684.3 53.8157L673.513 13.5544L702.983 -15.916Z" fill="#D1D1D1"/>
<path d="M692.237 -56.7283L692.138 -56.7567L651.575 -67.6238L621.809 -37.8575L621.837 -37.758L632.705 2.80418L632.805 2.83294L673.367 13.7005L703.133 -16.0657L703.104 -16.1657L692.237 -56.7283ZM651.682 -67.2174L691.938 -56.4288L702.727 -16.1726L673.256 13.2978L632.997 2.51199L622.211 -37.747L651.682 -67.2174Z" fill="#D1D1D1"/>
<path d="M662.863 -27.3543L662.592 -27.4251L621.862 -38.3392L591.85 -8.32734L591.921 -8.05616L602.835 32.6735L603.106 32.7448L643.836 43.6585L673.848 13.6466L673.776 13.3754L662.863 -27.3543ZM622.155 -37.2631L662.075 -26.5667L672.772 13.3544L643.547 42.5792L603.626 31.8823L592.93 -8.03834L622.155 -37.2631Z" fill="#484AB7"/>
<path d="M515.425 -85.1227L515.326 -85.151L474.767 -96.0149L445 -66.2487L445.029 -66.1487L455.897 -25.5866L455.996 -25.5583L496.558 -14.6907L526.325 -44.4569L526.296 -44.5565L515.425 -85.1227ZM474.873 -95.6086L515.133 -84.8232L525.919 -44.5633L496.448 -15.0929L456.193 -25.8824L445.403 -66.1382L474.873 -95.6086Z" fill="#D1D1D1"/>
<path d="M511.612 -30.0082L511.513 -30.0365L470.95 -40.904L441.184 -11.1378L441.212 -11.0383L452.08 29.5239L452.18 29.5526L492.742 40.4202L522.508 10.6539L522.48 10.5544L511.612 -30.0082ZM471.061 -40.5014L511.32 -29.7164L522.106 10.5435L492.635 40.0139L452.379 29.2248L441.59 -11.031L471.061 -40.5014Z" fill="#D1D1D1"/>
<path d="M552.332 -19.4259L552.061 -19.4971L511.331 -30.4113L481.319 -0.399009L481.39 -0.128271L492.304 40.6014L492.575 40.6731L533.305 51.5868L563.317 21.5745L563.245 21.3038L552.332 -19.4259ZM511.62 -29.3312L551.541 -18.6352L562.237 21.2865L533.013 50.5108L493.092 39.8139L482.395 -0.106828L511.62 -29.3312Z" fill="#D1D1D1"/>
<path d="M558.795 76.7136L558.695 76.6853L518.133 65.8178L488.367 95.584L488.395 95.6835L499.263 136.246L539.925 147.142L569.691 117.376L569.662 117.276L558.795 76.7136ZM518.244 66.2204L558.5 77.009L569.289 117.265L539.818 146.736L499.559 135.95L488.773 95.6908L518.244 66.2204Z" fill="#D1D1D1"/>
<path d="M547.96 36.2469L547.86 36.2181L507.298 25.351L477.532 55.1172L477.56 55.2172L488.428 95.7794L488.527 95.8077L529.09 106.675L558.856 76.909L558.828 76.8095L547.96 36.2469ZM507.405 25.7573L547.661 36.5464L558.449 76.8022L528.979 106.273L488.72 95.4872L477.934 55.2277L507.405 25.7573Z" fill="#D1D1D1"/>
<path d="M507.493 25.4122L507.393 25.3835L466.831 14.5159L437.065 44.2821L437.094 44.3821L447.961 84.9442L488.623 95.8402L518.389 66.0739L518.361 65.9744L507.493 25.4122ZM466.942 14.9185L507.198 25.7076L517.987 65.9634L488.516 95.4338L448.257 84.6484L437.471 44.3889L466.942 14.9185Z" fill="#D1D1D1"/>
<path d="M636.81 -52.6021L636.71 -52.6309L596.147 -63.498L566.381 -33.7322L566.41 -33.6322L577.277 6.93036L577.377 6.95869L617.939 17.8258L647.705 -11.94L647.677 -12.04L636.81 -52.6021ZM596.257 -63.0953L636.517 -52.3099L647.302 -12.0504L617.832 17.4199L577.573 6.63453L566.787 -33.6249L596.257 -63.0953Z" fill="#D1D1D1"/>
<path d="M611.322 -78.4166L611.222 -78.4453L570.66 -89.3129L540.894 -59.5467L540.922 -59.4467L551.79 -18.8845L551.89 -18.8562L592.452 -7.98861L622.218 -37.7549L622.19 -37.8544L611.322 -78.4166ZM570.767 -88.9066L611.027 -78.1212L621.812 -37.8617L592.341 -8.39129L552.086 -19.1804L541.296 -59.4362L570.767 -88.9066Z" fill="#D1D1D1"/>
<path d="M643.835 42.975L643.735 42.9463L603.173 32.0787L573.407 61.8449L573.436 61.9449L584.303 102.507L584.403 102.535L624.967 113.405L654.733 83.6385L654.705 83.539L643.835 42.975ZM603.28 32.485L643.536 43.2741L654.323 83.528L624.853 112.998L584.595 102.215L573.809 61.9554L603.28 32.485Z" fill="#D1D1D1"/>
<path d="M632.997 2.51099L632.898 2.48268L592.335 -8.38444L562.569 21.3814L562.597 21.4813L573.465 62.0435L573.565 62.0723L614.127 72.9394L643.893 43.1736L643.864 43.0736L632.997 2.51099ZM592.446 -7.98176L632.705 2.80318L643.491 43.0631L614.02 72.5335L573.761 61.7477L562.975 21.4886L592.446 -7.98176Z" fill="#D1D1D1"/>
<path d="M754.381 35.0321L754.282 35.0038L713.717 24.1339L683.951 53.9001L683.98 53.9996L694.849 94.5645L694.949 94.5924L735.513 105.462L765.28 75.696L765.247 75.5919L754.381 35.0321ZM713.828 24.5438L754.082 35.3316L764.87 75.5856L735.399 105.056L695.145 94.2687L684.358 54.0142L713.828 24.5438Z" fill="#D1D1D1"/>
<path d="M776.063 115.955L775.963 115.926L735.399 105.056L705.632 134.823L705.661 134.922L716.531 175.487L716.63 175.515L757.19 186.38L786.956 156.614L786.928 156.514L776.063 115.955ZM735.509 105.466L775.767 116.25L786.551 156.508L757.08 185.978L716.823 175.194L706.039 134.937L735.509 105.466Z" fill="#D1D1D1"/>
<path d="M746.443 145.574L746.343 145.546L705.779 134.676L676.013 164.442L676.041 164.542L686.911 205.106L687.01 205.135L727.57 216L757.337 186.234L757.308 186.134L746.443 145.574ZM705.893 135.082L746.147 145.87L756.935 186.124L727.464 215.594L687.206 204.811L676.423 164.553L705.893 135.082Z" fill="#D1D1D1"/>
<path d="M635.911 153.502L635.812 153.473L595.247 142.604L565.481 172.37L565.51 172.469L576.379 213.034L576.479 213.062L617.043 223.932L646.809 194.166L646.776 194.062L635.911 153.502ZM595.361 143.01L635.619 153.794L646.403 194.052L616.932 223.522L576.675 212.738L565.891 172.481L595.361 143.01Z" fill="#D1D1D1"/>
<path d="M695.148 94.265L695.049 94.2367L654.484 83.3673L624.718 113.133L624.746 113.233L635.616 153.798L635.715 153.826L676.28 164.695L706.046 134.929L706.013 134.825L695.148 94.265ZM654.598 83.7736L694.852 94.5609L705.639 134.815L676.169 164.286L635.911 153.502L625.127 113.244L654.598 83.7736Z" fill="#D1D1D1"/>
<path d="M727.66 215.655L727.56 215.626L686.996 204.757L657.23 234.523L657.258 234.622L668.127 275.187L668.227 275.216L708.787 286.08L738.553 256.314L738.525 256.215L727.66 215.655ZM687.105 205.158L727.368 215.947L738.152 256.205L708.681 285.675L668.423 274.891L657.635 234.629L687.105 205.158Z" fill="#D1D1D1"/>
<path d="M717.071 174.946L716.798 174.872L676.068 163.957L646.056 193.97L646.13 194.243L657.044 234.973L657.312 235.042L698.043 245.956L728.055 215.944L727.986 215.676L717.071 174.946ZM676.361 165.034L716.284 175.733L726.978 215.651L697.754 244.876L657.835 234.182L647.137 194.259L676.361 165.034Z" fill="#484AB7"/>
<path d="M646.751 193.959L646.652 193.931L606.092 183.066L576.326 212.832L576.354 212.931L587.219 253.491L627.883 264.389L657.649 234.623L657.621 234.524L646.751 193.959ZM606.198 183.471L646.455 194.255L657.244 234.517L627.773 263.988L587.511 253.199L576.727 212.942L606.198 183.471Z" fill="#D1D1D1"/>
<path d="M627.973 264.044L587.309 253.146L557.543 282.912L557.571 283.012L568.441 323.576L609.1 334.47L638.867 304.703L638.838 304.604L627.973 264.044ZM587.42 253.556L627.677 264.34L638.461 304.597L608.991 334.068L568.733 323.284L557.949 283.026L587.42 253.556Z" fill="#D1D1D1"/>
<path d="M617.135 223.575L617.036 223.547L576.476 212.682L546.71 242.448L546.738 242.547L557.603 283.107L598.267 294.006L628.034 264.239L628.005 264.14L617.135 223.575ZM576.582 213.087L616.836 223.874L627.628 264.133L598.158 293.604L557.895 282.815L547.112 242.558L576.582 213.087Z" fill="#D1D1D1"/>
<path d="M684.296 53.8193L684.192 53.7865L643.632 42.9211L613.866 72.6874L613.895 72.7869L624.764 113.352L624.864 113.38L665.424 124.245L695.19 94.4788L695.162 94.3792L684.296 53.8193ZM643.743 43.3238L684.004 54.1115L694.788 94.3692L665.318 123.84L625.06 113.056L614.273 72.7942L643.743 43.3238Z" fill="#D1D1D1"/>
<path d="M639.883 98.2333L639.779 98.2005L599.218 87.3356L569.452 117.101L569.481 117.201L580.35 157.766L580.45 157.794L621.01 168.659L650.776 138.893L650.747 138.794L639.883 98.2333ZM599.326 87.7415L639.587 98.5292L650.371 138.787L620.9 168.257L580.642 157.474L569.855 117.212L599.326 87.7415Z" fill="#D1D1D1"/>
<path d="M779.221 266.689L778.952 266.62L738.222 255.706L708.21 285.717L708.284 285.99L719.193 326.716L719.466 326.79L760.196 337.704L790.208 307.692L790.135 307.419L779.221 266.689ZM738.515 256.782L778.433 267.476L789.132 307.399L759.907 336.624L719.984 325.925L709.29 286.007L738.515 256.782Z" fill="#D1D1D1"/>
<path d="M458.18 113.286C459.24 114.346 459.241 116.066 458.18 117.126C457.119 118.187 455.399 118.187 454.339 117.126C453.278 116.066 453.278 114.346 454.339 113.285C455.399 112.225 457.119 112.225 458.18 113.286Z" fill="#C5C8CD"/>
<path d="M670.197 273.117C671.257 274.176 671.255 275.894 670.194 276.955C669.134 278.015 667.415 278.017 666.356 276.958C665.292 275.894 665.294 274.176 666.355 273.115C667.415 272.055 669.134 272.053 670.197 273.117Z" fill="#C5C8CD"/>
<path d="M675.308 11.5017C676.369 12.5627 676.369 14.282 675.308 15.3431C674.247 16.4036 672.528 16.4037 671.467 15.3427C670.406 14.2821 670.406 12.5627 671.467 11.5022C672.528 10.4412 674.247 10.4412 675.308 11.5017Z" fill="#C5C8CD"/>
<path d="M626.83 111.276C627.894 112.34 627.892 114.059 626.832 115.119C625.771 116.18 624.053 116.182 622.989 115.118C621.93 114.059 621.931 112.34 622.992 111.28C624.053 110.219 625.771 110.217 626.83 111.276Z" fill="#C5C8CD"/>
</g>
<defs>
<clipPath id="clip0_1_1697">
<rect width="929.738" height="521.686" fill="white" transform="matrix(0.707107 0.707107 0.707107 -0.707107 0.631836 -184.48)"/>
</clipPath>
</defs>
</svg>
